# xmcd CD database file
#
# Track frame offsets:
#	150
#	9587
#	24135
#	43340
#	65643
#	81578
#	100000
#	125163
#	144310
#	163508
#	184147
#	201415
#	221766
#	240133
#	261977
#	280934
#
# Disc length: 3904 seconds
#
# Revision: 5
# Processed by: cddbd v1.4PL0 Copyright (c) Steve Scherf et al.
# Submitted via: CDex 1.50Beta7
#
DISCID=ea0f3e10
DTITLE=Destiny's Child - The Writing's On The Wall
DYEAR=2000
DGENRE=Rhythmic Soul
TTITLE0=Intro
TTITLE1=So Good
TTITLE2=Bills Bills Bills
TTITLE3=Confessions
TTITLE4=Bug A Boo
TTITLE5=Temptation
TTITLE6=Now That She's Gone
TTITLE7=Where'd You Go
TTITLE8=Hey Ladies
TTITLE9=If You Leave
TTITLE10=Jumpin', Jumpin'
TTITLE11=Say My Name
TTITLE12=She Can't Love You
TTITLE13=Stay
TTITLE14=Sweet Sixteen
TTITLE15=Outro
EXTD=\n\n YEAR: 2000
EXTT0=
EXTT1=
EXTT2=
EXTT3=
EXTT4=
EXTT5=
EXTT6=
EXTT7=
EXTT8=
EXTT9=
EXTT10=
EXTT11=
EXTT12=
EXTT13=
EXTT14=
EXTT15=
PLAYORDER=
